<?xml version="1.0" encoding="UTF-8" standalone="no"?>
<!-- Created with Inkscape (http://www.inkscape.org/) -->

<svg
   version="1.1"
   id="svg1"
   width="205"
   height="205"
   viewBox="0 0 205 205"
   sodipodi:docname="vitalnet-logo.svg"
   inkscape:version="1.3.2 (091e20e, 2023-11-25, custom)"
   xmlns:inkscape="http://www.inkscape.org/namespaces/inkscape"
   xmlns:sodipodi="http://sodipodi.sourceforge.net/DTD/sodipodi-0.dtd"
   xmlns="http://www.w3.org/2000/svg"
   xmlns:svg="http://www.w3.org/2000/svg">
  <defs
     id="defs1" />
  <sodipodi:namedview
     id="namedview1"
     pagecolor="#505050"
     bordercolor="#ffffff"
     borderopacity="1"
     inkscape:showpageshadow="0"
     inkscape:pageopacity="0"
     inkscape:pagecheckerboard="1"
     inkscape:deskcolor="#505050"
     showgrid="false"
     inkscape:zoom="2.1788379"
     inkscape:cx="127.82043"
     inkscape:cy="159.02973"
     inkscape:window-width="1920"
     inkscape:window-height="1057"
     inkscape:window-x="-8"
     inkscape:window-y="-8"
     inkscape:window-maximized="1"
     inkscape:current-layer="layer1" />
  <g
     inkscape:groupmode="layer"
     id="layer1"
     inkscape:label="VitalNet-logo">
    <path
       style="fill:#000000;stroke-width:1.05771;fill-opacity:1"
       d="m 86.789628,200.95128 c -14.2039,-2.34884 -30.81581,-9.08001 -41.32025,-16.74303 -3.0823,-2.24855 7.74557,-13.34349 17.99251,-18.43632 9.07688,-4.51128 12.98954,-5.09145 34.44229,-5.10717 47.997152,-0.0352 70.457052,-5.62445 97.175982,-24.18289 2.10275,-1.46052 1.77861,-0.27114 -2.2915,8.40829 -18.5981,39.66009 -63.04056,63.16496 -105.999032,56.06112 z m -58.98446,-32.32301 c -8.8972,-10.44188 -8.91042,-9.03463 0.1672,-17.80198 19.87772,-19.19833 32.5458,-23.17043 76.427192,-23.96384 49.34526,-0.89222 71.05171,-9.75873 93.37473,-38.141152 3.81862,-4.85514 3.93945,-4.58152 4.59732,10.410112 0.52211,11.89826 -7.49855,20.33325 -30.46588,32.03972 -19.92748,10.15704 -29.4436,11.94543 -67.16752,12.62296 -32.779162,0.58872 -36.706332,1.1621 -48.442522,7.07269 -8.24745,4.15358 -24.36777,17.8355 -24.36777,20.68184 0,1.35196 -1.21698,0.48992 -4.12275,-2.92035 z M 9.0283875,137.48082 c -4.56359,-12.59819 -5.13423,-10.92684 6.8696205,-20.12003 23.51152,-18.00636 41.05408,-22.864792 85.453682,-23.666432 28.76561,-0.51937 30.14065,-0.64276 38.94504,-3.49442 18.92362,-6.12919 34.65736,-21.53516 41.33832,-40.47716 2.15429,-6.10785 2.15871,-6.1083 5.59527,-0.56116 7.49743,12.10205 7.78057,13.28615 4.51695,18.89034 -10.64221,18.27449 -26.88564,31.691272 -46.15116,38.119982 -11.11649,3.70946 -12.53659,3.85267 -43.90577,4.42782 -46.168362,0.8465 -65.754842,7.58749 -87.335892,30.05805 -3.08638,3.2136 -2.9904,3.27085 -5.3260605,-3.17699 z m -6.5477,-32.90773 c -0.40993,-1.29015 0.75724,-17.572352 1.37491,-19.180192 0.59569,-1.55065 16.4048205,-10.05635 25.4826205,-13.71029 22.46002,-9.04045 35.59473,-11.13486 69.83046,-11.13486 41.038182,0 53.269882,-8.57671 53.309532,-37.37996 0.005,-4.00017 0.18685,-7.27304 0.40298,-7.27304 0.59505,0 11.81777,7.86758 14.4235,10.11145 5.40914,4.65798 -1.96976,25.58344 -12.86909,36.49481 -12.5132,12.52704 -21.69947,14.96075 -56.470442,14.96075 -41.92331,0 -67.66962,7.41868 -91.8723005,26.472562 -2.92382,2.30181 -3.07525,2.32858 -3.61217,0.63877 z M 11.620088,60.789278 c 0.0248,-1.27061 6.41315,-12.38884 10.03133,-17.45844 24.0411,-33.68512 71.41549,-49.5077039 109.840342,-36.6856099 4.40248,1.4690699 4.40248,1.4690699 4.36418,12.9706099 -0.0727,21.83203 -2.8384,23.99117 -30.77907,24.02895 -41.209422,0.0557 -60.413752,3.26304 -85.564752,14.29022 -3.41556,1.49751 -6.59107,2.88279 -7.05672,3.07841 -0.46564,0.19562 -0.84154,0.0947 -0.83531,-0.22414 z"
       id="path1-6"
       sodipodi:nodetypes="sssssssssssssssssssssssssssssssscssssssssssssss" />
  </g>
</svg>
